<svg width="33" height="32" viewBox="0 0 33 32" fill="none" xmlns="http://www.w3.org/2000/svg">
<path opacity="0.5" d="M21.2267 24.9706C19.4585 24.9709 17.7299 24.445 16.2596 23.4595C14.7892 22.4741 13.6431 21.0732 12.9662 19.4341C12.2893 17.7951 12.112 15.9914 12.4567 14.2512C12.8014 12.511 13.6526 10.9124 14.9028 9.65769C16.1529 8.40293 17.7458 7.54832 19.48 7.20193C21.2141 6.85554 23.0118 7.03292 24.6455 7.71164C26.2792 8.39037 27.6756 9.53995 28.6582 11.015C29.6408 12.4901 30.1654 14.2244 30.1657 15.9986V16C30.1632 18.3781 29.2207 20.6582 27.5449 22.34C25.8691 24.0217 23.5969 24.9678 21.2267 24.9706Z" fill="#575757"/>
<path d="M12.5282 24.9706C10.7599 24.9706 9.03143 24.4445 7.56121 23.4588C6.09099 22.4731 4.9451 21.0721 4.26843 19.4329C3.59176 17.7937 3.41472 15.99 3.75968 14.2499C4.10464 12.5097 4.95612 10.9113 6.20644 9.65675C7.45675 8.40218 9.04976 7.5478 10.784 7.20167C12.5182 6.85553 14.3158 7.03318 15.9494 7.71215C17.5831 8.39112 18.9793 9.54091 19.9617 11.0161C20.9441 12.4914 21.4684 14.2257 21.4684 16C21.466 18.3784 20.5232 20.6587 18.8472 22.3405C17.1711 24.0222 14.8985 24.9682 12.5282 24.9706Z" fill="#05237D"/>
</svg>
