<svg width="41" height="16" viewBox="0 0 41 16" fill="none" xmlns="http://www.w3.org/2000/svg">
<path d="M21.5485 5.11501C21.5258 7.34388 23.1467 8.5876 24.3677 9.32714C25.6222 10.0858 26.0436 10.5724 26.0386 11.251C26.0292 12.2893 25.0379 12.7477 24.1103 12.7655C22.4919 12.7966 21.5509 12.2224 20.8028 11.7881L20.2198 15.1788C20.9704 15.6087 22.3602 15.9835 23.8014 16C27.1844 16 29.3976 13.9244 29.4096 10.7063C29.4229 6.62215 24.8645 6.39609 24.8956 4.57057C24.9063 4.01703 25.3313 3.42633 26.2625 3.27614C26.7234 3.20027 27.9958 3.14221 29.4384 3.96787L30.0046 0.68728C29.2288 0.336188 28.2318 0 26.9903 0C23.8062 0 21.5666 2.10384 21.5485 5.11501ZM35.4452 0.282577C34.8274 0.282577 34.3069 0.730439 34.0745 1.41772L29.2421 15.759H32.6226L33.2953 13.4483H37.4263L37.8165 15.759H40.796L38.196 0.282577H35.4452ZM35.9181 4.46335L36.8937 10.2749H34.2218L35.9181 4.46335ZM17.4498 0.282769L14.7851 15.7588H18.0065L20.67 0.282382L17.4498 0.282769ZM12.6843 0.282382L9.33135 10.8165L7.97503 1.85978C7.81588 0.859921 7.18739 0.282577 6.48946 0.282577H1.00841L0.931641 0.731988C2.05688 1.03547 3.33534 1.52494 4.10989 2.04868C4.58391 2.36861 4.71907 2.64828 4.87479 3.40853L7.44371 15.759H10.8479L16.067 0.282577L12.6843 0.282382Z" fill="url(#paint0_linear_122_1986)"/>
<defs>
<linearGradient id="paint0_linear_122_1986" x1="19.2589" y1="16.321" x2="19.8343" y2="-0.104172" gradientUnits="userSpaceOnUse">
<stop stop-color="#222357"/>
<stop offset="1" stop-color="#254AA5"/>
</linearGradient>
</defs>
</svg>
